<svg width="20" height="20" viewBox="0 0 20 20" fill="none" xmlns="http://www.w3.org/2000/svg">
<path fill-rule="evenodd" clip-rule="evenodd" d="M8.5 1C12.6421 1 16 4.35786 16 8.5C16 10.2105 15.4274 11.7873 14.4633 13.0491L19 17.5858L17.5858 19L13.0491 14.4633C11.7873 15.4274 10.2105 16 8.5 16C4.35786 16 1 12.6421 1 8.5C1 4.35786 4.35786 1 8.5 1ZM8.5 3.14286C5.54133 3.14286 3.14286 5.54133 3.14286 8.5C3.14286 11.4587 5.54133 13.8571 8.5 13.8571C11.4587 13.8571 13.8571 11.4587 13.8571 8.5C13.8571 5.54133 11.4587 3.14286 8.5 3.14286Z" fill="#302F2D"/>
</svg>
